<svg id="SvgjsSvg1006" width="5000px" height="5000px" xmlns="http://www.w3.org/2000/svg" version="1.1" xmlns:xlink="http://www.w3.org/1999/xlink" xmlns:svgjs="http://svgjs.com/svgjs" viewBox="0 0 400 400"><defs id="SvgjsDefs1007"></defs><g id="SvgjsG1009"><svg width="400" height="400" x="0" y="0" xmlns="http://www.w3.org/2000/svg" version="1.1" xmlns:xlink="http://www.w3.org/1999/xlink" xmlns:svgjs="http://svgjs.com/svgjs" preserveAspectRatio="none"><rect width="390" height="390" stroke-width="10" stroke="#92e0e1" stroke-opacity="0.6" fill="#92e0e1" fill-opacity="0" x="5" y="5" rx="0" ry="0"></rect><defs id="SvgjsDefs1008"></defs></svg></g><g id="SvgjsG1011" transform="rotate(0 200 171.828125)"><svg height="170" viewBox="0 0 84 87" xmlns="http://www.w3.org/2000/svg" version="1.1" xmlns:xlink="http://www.w3.org/1999/xlink" xmlns:svgjs="http://svgjs.com/svgjs" preserveAspectRatio="none" width="164.125" x="117.9375" y="86.828125"><g><svg data-color="1" xmlns="http://www.w3.org/2000/svg" xmlns:xlink="http://www.w3.org/1999/xlink" version="1.1" x="0px" y="0px" viewBox="8 5.999999046325684 84 87" enable-background="new 0 0 100 100" xml:space="preserve" width="84" height="87" fill="#92e0e1"><path d="M39.5,21c0-5.799,4.701-10.5,10.5-10.5S60.5,15.201,60.5,21S55.799,31.5,50,31.5S39.5,26.799,39.5,21z"></path><path d="M91.121,26.121l-6,6c-1.172,1.172-3.07,1.172-4.242,0c-1.172-1.172-1.172-3.07,0-4.242L81.758,27  l-2.707-2.707C76.728,31.964,70.286,38.114,62,40.682V66v24c0,1.657-1.343,3-3,3s-3-1.343-3-3V69H44v21c0,1.657-1.343,3-3,3  s-3-1.343-3-3V40.682c-8.286-2.568-14.728-8.718-17.051-16.389L18.242,27l0.879,0.879c1.172,1.172,1.172,3.07,0,4.242  c-1.172,1.172-3.07,1.172-4.242,0l-6-6c-1.172-1.172-1.172-3.07,0-4.242s3.07-1.172,4.242,0L14,22.758  c0.793-0.793,9.112-9.112,10.758-10.758l-0.879-0.879c-1.172-1.172-1.172-3.07,0-4.242s3.07-1.172,4.242,0l6,6  c1.172,1.172,1.172,3.07,0,4.242c-1.172,1.172-3.07,1.172-4.242,0L29,16.242l-2.932,2.932C26.766,28.552,35.706,36,46.625,36h6.75  c10.919,0,19.859-7.448,20.557-16.826L71,16.242l-0.879,0.879c-1.172,1.172-3.07,1.172-4.242,0c-1.172-1.172-1.172-3.07,0-4.242l6-6  c1.172-1.172,3.07-1.172,4.242,0s1.172,3.07,0,4.242L75.242,12c1.646,1.646,9.965,9.965,10.758,10.758l0.879-0.879  c1.172-1.172,3.07-1.172,4.242,0S92.293,24.949,91.121,26.121z"></path></svg></g><defs id="SvgjsDefs1010"></defs></svg></g><g id="SvgjsG1013" transform="rotate(0 200.0078125 295)"><svg xmlns="http://www.w3.org/2000/svg" xmlns:xlink="http://www.w3.org/1999/xlink" width="362.171875" viewBox="1.1200000047683716 -1.3600000143051147 362.17999267578125 28.350000381469727" overflow="visible" style="overflow: visible;" transform="" version="1.1" xmlns:svgjs="http://svgjs.com/svgjs" preserveAspectRatio="none" height="28.34375" x="18.921875" y="280.828125" fill="#000000" stroke="none"><path stroke="none" fill="#92e0e1" d="M17.08 6.72L17.08 6.72Q13.72 4.87 11.24 4.87L11.24 4.87L11.24 4.87Q9.56 4.87 8.63 5.53L8.63 5.53L8.63 5.53Q7.70 6.20 7.70 7.53L7.70 7.53L7.70 7.53Q7.70 8.75 9.05 9.68L9.05 9.68L9.05 9.68Q10.40 10.61 12.64 11.45L12.64 11.45L12.64 11.45Q14.46 12.11 15.75 12.97L15.75 12.97L15.75 12.97Q17.05 13.83 17.90 15.33L17.90 15.33L17.90 15.33Q18.76 16.84 18.76 19.15L18.76 19.15L18.76 19.15Q18.76 21.14 17.73 22.84L17.73 22.84L17.73 22.84Q16.70 24.54 14.70 25.53L14.70 25.53L14.70 25.53Q12.71 26.53 9.94 26.53L9.94 26.53L9.94 26.53Q7.63 26.53 5.36 25.85L5.36 25.85L5.36 25.85Q3.08 25.17 1.12 23.77L1.12 23.77L3.36 19.81L3.36 19.81Q4.69 20.79 6.41 21.42L6.41 21.42L6.41 21.42Q8.12 22.05 9.49 22.05L9.49 22.05L9.49 22.05Q11.10 22.05 12.29 21.37L12.29 21.37L12.29 21.37Q13.48 20.69 13.48 19.15L13.48 19.15L13.48 19.15Q13.48 17.15 9.73 15.68L9.73 15.68L9.73 15.68Q7.53 14.81 6.06 14.00L6.06 14.00L6.06 14.00Q4.59 13.20 3.52 11.69L3.52 11.69L3.52 11.69Q2.45 10.19 2.45 7.91L2.45 7.91L2.45 7.91Q2.45 4.59 4.64 2.55L4.64 2.55L4.64 2.55Q6.83 0.53 10.47 0.35L10.47 0.35L10.47 0.35Q13.34 0.35 15.26 1.00L15.26 1.00L15.26 1.00Q17.19 1.64 19.01 2.84L19.01 2.84L17.08 6.72ZM33.43 10.96L38.33 10.96L38.33 26.25L33.88 26.25L33.53 23.80L33.53 23.80Q32.73 25.27 31.27 26.13L31.27 26.13L31.27 26.13Q29.82 26.99 27.86 26.99L27.86 26.99L27.86 26.99Q25.76 26.99 24.36 25.69L24.36 25.69L24.36 25.69Q22.96 24.40 22.93 22.40L22.93 22.40L22.93 10.96L27.83 10.96L27.83 20.58L27.83 20.58Q27.93 22.82 29.89 22.82L29.89 22.82L29.89 22.82Q31.50 22.82 32.46 21.25L32.46 21.25L32.46 21.25Q33.43 19.67 33.43 17.19L33.43 17.19L33.43 10.96ZM48.16 14.46L48.16 14.46Q48.79 13.23 49.89 12.25L49.89 12.25L49.89 12.25Q50.99 11.27 52.15 10.73L52.15 10.73L52.15 10.73Q53.30 10.19 53.97 10.19L53.97 10.19L53.73 15.09L53.73 15.09Q53.52 15.05 53.13 15.05L53.13 15.05L53.13 15.05Q51.66 15.05 50.54 15.82L50.54 15.82L50.54 15.82Q49.42 16.59 48.83 17.80L48.83 17.80L48.83 17.80Q48.23 19.01 48.23 20.27L48.23 20.27L48.23 26.25L43.37 26.25L43.37 10.96L47.77 10.96L48.16 14.46ZM68.08 10.96L73.53 10.96L64.86 26.57L64.72 26.57L55.55 10.96L61.36 10.96L64.92 18.24L68.08 10.96ZM76.41 10.96L81.31 10.96L81.31 26.25L76.41 26.25L76.41 10.96ZM76.30 5.53L76.30 5.53Q76.30 4.48 77.12 3.76L77.12 3.76L77.12 3.76Q77.95 3.05 79.00 3.05L79.00 3.05L79.00 3.05Q80.01 3.05 80.82 3.76L80.82 3.76L80.82 3.76Q81.62 4.48 81.62 5.53L81.62 5.53L81.62 5.53Q81.62 6.58 80.82 7.28L80.82 7.28L80.82 7.28Q80.01 7.98 79.00 7.98L79.00 7.98L79.00 7.98Q77.95 7.98 77.12 7.28L77.12 7.28L77.12 7.28Q76.30 6.58 76.30 5.53L76.30 5.53ZM96.70 10.96L102.17 10.96L93.48 26.57L93.34 26.57L84.17 10.96L89.98 10.96L93.56 18.24L96.70 10.96ZM116.94 10.96L121.48 10.96L121.48 26.25L116.59 26.25L116.59 24.36L116.59 24.36Q114.38 26.67 111.47 26.67L111.47 26.67L111.47 26.67Q108.08 26.67 105.96 24.64L105.96 24.64L105.96 24.64Q103.84 22.61 103.84 18.62L103.84 18.62L103.84 18.62Q103.84 16.10 104.88 14.19L104.88 14.19L104.88 14.19Q105.91 12.29 107.63 11.24L107.63 11.24L107.63 11.24Q109.34 10.19 111.30 10.19L111.30 10.19L111.30 10.19Q113.33 10.19 114.52 10.80L114.52 10.80L114.52 10.80Q115.71 11.41 116.62 12.53L116.62 12.53L116.94 10.96ZM112.88 22.68L112.88 22.68Q115.43 22.68 116.59 20.37L116.59 20.37L116.59 16.63L116.59 16.63Q116.17 15.51 115.13 14.84L115.13 14.84L115.13 14.84Q114.10 14.18 112.70 14.18L112.70 14.18L112.70 14.18Q111.09 14.18 109.95 15.37L109.95 15.37L109.95 15.37Q108.81 16.56 108.81 18.38L108.81 18.38L108.81 18.38Q108.81 19.57 109.38 20.56L109.38 20.56L109.38 20.56Q109.94 21.56 110.86 22.12L110.86 22.12L110.86 22.12Q111.79 22.68 112.88 22.68L112.88 22.68ZM126.52-1.36L131.42-1.36L131.42 26.25L126.52 26.25L126.52-1.36ZM146.65 18.41L146.65 18.41Q146.65 16.07 147.75 14.21L147.75 14.21L147.75 14.21Q148.85 12.36 150.87 11.29L150.87 11.29L150.87 11.29Q152.88 10.22 155.44 10.22L155.44 10.22L155.44 10.22Q157.99 10.22 159.93 11.29L159.93 11.29L159.93 11.29Q161.88 12.36 162.92 14.21L162.92 14.21L162.92 14.21Q163.97 16.07 163.97 18.41L163.97 18.41L163.97 18.41Q163.97 20.76 162.92 22.65L162.92 22.65L162.92 22.65Q161.88 24.54 159.93 25.60L159.93 25.60L159.93 25.60Q157.99 26.67 155.37 26.67L155.37 26.67L155.37 26.67Q152.81 26.67 150.83 25.67L150.83 25.67L150.83 25.67Q148.85 24.68 147.75 22.82L147.75 22.82L147.75 22.82Q146.65 20.97 146.65 18.41L146.65 18.41ZM151.58 18.45L151.58 18.45Q151.58 20.27 152.63 21.47L152.63 21.47L152.63 21.47Q153.69 22.68 155.29 22.68L155.29 22.68L155.29 22.68Q156.97 22.68 158.01 21.49L158.01 21.49L158.01 21.49Q159.04 20.30 159.04 18.45L159.04 18.45L159.04 18.45Q159.04 16.59 158.01 15.40L158.01 15.40L158.01 15.40Q156.97 14.21 155.29 14.21L155.29 14.21L155.29 14.21Q153.69 14.21 152.63 15.42L152.63 15.42L152.63 15.42Q151.58 16.63 151.58 18.45L151.58 18.45ZM169.30 26.25L169.30 15.23L166.71 15.23L166.71 10.89L169.30 10.89L169.30 5.57L169.30 5.57Q169.30 2.49 171.06 0.61L171.06 0.61L171.06 0.61Q172.83-1.26 176.05-1.26L176.05-1.26L176.05-1.26Q177.10-1.26 178.29-0.95L178.29-0.95L178.29-0.95Q179.48-0.63 180.36 0L180.36 0L178.29 3.54L178.29 3.54Q177.66 2.77 176.58 2.77L176.58 2.77L176.58 2.77Q175.49 2.77 174.84 3.50L174.84 3.50L174.84 3.50Q174.19 4.24 174.19 5.71L174.19 5.71L174.19 10.89L178.81 10.89L178.81 15.23L174.19 15.23L174.19 26.25L169.30 26.25ZM195.86 4.24L200.76 4.24L200.76 10.89L204.47 10.89L204.47 14.70L200.76 14.70L200.76 26.25L195.86 26.25L195.86 14.70L193.48 14.70L193.48 10.89L195.86 10.89L195.86 4.24ZM218.85 10.22L218.85 10.22Q221.03 10.22 222.48 11.52L222.48 11.52L222.48 11.52Q223.93 12.81 223.97 14.81L223.97 14.81L223.97 26.25L219.06 26.25L219.06 16.63L219.06 16.63Q218.96 14.39 216.82 14.39L216.82 14.39L216.82 14.39Q215.14 14.39 214.13 15.96L214.13 15.96L214.13 15.96Q213.11 17.54 213.11 20.02L213.11 20.02L213.11 26.25L208.22 26.25L208.22-1.36L213.01-1.36L213.01 13.37L213.01 13.37Q213.85 11.90 215.34 11.06L215.34 11.06L215.34 11.06Q216.82 10.22 218.85 10.22L218.85 10.22ZM236.63 22.51L236.63 22.51Q238.10 22.51 239.68 21.49L239.68 21.49L241.85 25.13L241.85 25.13Q240.59 25.83 239.19 26.25L239.19 26.25L239.19 26.25Q237.79 26.67 236.53 26.67L236.53 26.67L236.53 26.67Q233.80 26.67 231.82 25.64L231.82 25.64L231.82 25.64Q229.84 24.61 228.83 22.73L228.83 22.73L228.83 22.73Q227.81 20.86 227.81 18.45L227.81 18.45L227.81 18.45Q227.81 16.21 228.99 14.32L228.99 14.32L228.99 14.32Q230.16 12.43 232.19 11.32L232.19 11.32L232.19 11.32Q234.22 10.22 236.63 10.22L236.63 10.22L236.63 10.22Q239.92 10.22 242.04 12.15L242.04 12.15L242.04 12.15Q244.16 14.07 244.79 17.64L244.79 17.64L233.59 21.21L233.59 21.21Q234.71 22.51 236.63 22.51L236.63 22.51ZM236.25 14.04L236.25 14.04Q234.60 14.04 233.63 15.16L233.63 15.16L233.63 15.16Q232.64 16.28 232.64 18.17L232.64 18.17L232.64 18.48L239.36 16.21L239.36 16.21Q238.63 14.04 236.25 14.04L236.25 14.04ZM260.54 0.49L276.64 0.49L276.64 5.39L265.61 5.39L265.61 11.24L275.17 11.24L275.17 16.14L265.61 16.14L265.61 26.25L260.54 26.25L260.54 0.49ZM280.73 10.96L285.63 10.96L285.63 26.25L280.73 26.25L280.73 10.96ZM280.63 5.53L280.63 5.53Q280.63 4.48 281.45 3.76L281.45 3.76L281.45 3.76Q282.27 3.05 283.32 3.05L283.32 3.05L283.32 3.05Q284.34 3.05 285.14 3.76L285.14 3.76L285.14 3.76Q285.95 4.48 285.95 5.53L285.95 5.53L285.95 5.53Q285.95 6.58 285.14 7.28L285.14 7.28L285.14 7.28Q284.34 7.98 283.32 7.98L283.32 7.98L283.32 7.98Q282.27 7.98 281.45 7.28L281.45 7.28L281.45 7.28Q280.63 6.58 280.63 5.53L280.63 5.53ZM292.11 4.24L297.01 4.24L297.01 10.89L300.72 10.89L300.72 14.70L297.01 14.70L297.01 26.25L292.11 26.25L292.11 14.70L289.73 14.70L289.73 10.89L292.11 10.89L292.11 4.24ZM305.90 4.24L310.80 4.24L310.80 10.89L314.51 10.89L314.51 14.70L310.80 14.70L310.80 26.25L305.90 26.25L305.90 14.70L303.52 14.70L303.52 10.89L305.90 10.89L305.90 4.24ZM325.88 22.51L325.88 22.51Q327.36 22.51 328.93 21.49L328.93 21.49L331.10 25.13L331.10 25.13Q329.84 25.83 328.44 26.25L328.44 26.25L328.44 26.25Q327.04 26.67 325.78 26.67L325.78 26.67L325.78 26.67Q323.05 26.67 321.07 25.64L321.07 25.64L321.07 25.64Q319.10 24.61 318.08 22.73L318.08 22.73L318.08 22.73Q317.06 20.86 317.06 18.45L317.06 18.45L317.06 18.45Q317.06 16.21 318.24 14.32L318.24 14.32L318.24 14.32Q319.41 12.43 321.44 11.32L321.44 11.32L321.44 11.32Q323.47 10.22 325.88 10.22L325.88 10.22L325.88 10.22Q329.18 10.22 331.29 12.15L331.29 12.15L331.29 12.15Q333.41 14.07 334.04 17.64L334.04 17.64L322.84 21.21L322.84 21.21Q323.96 22.51 325.88 22.51L325.88 22.51ZM325.50 14.04L325.50 14.04Q323.86 14.04 322.88 15.16L322.88 15.16L322.88 15.16Q321.90 16.28 321.90 18.17L321.90 18.17L321.90 18.48L328.62 16.21L328.62 16.21Q327.88 14.04 325.50 14.04L325.50 14.04ZM342.58 26.57L342.58 26.57Q340.69 26.57 339.05 25.90L339.05 25.90L339.05 25.90Q337.40 25.24 336.32 24.05L336.32 24.05L338.35 21.35L338.35 21.35Q340.38 23.24 342.16 23.24L342.16 23.24L342.16 23.24Q343.11 23.24 343.68 22.94L343.68 22.94L343.68 22.94Q344.26 22.65 344.26 22.05L344.26 22.05L344.26 22.05Q344.26 21.35 343.60 20.98L343.60 20.98L343.60 20.98Q342.93 20.62 342.11 20.37L342.11 20.37L342.11 20.37Q341.29 20.13 341.01 20.06L341.01 20.06L341.01 20.06Q339.01 19.43 338.03 18.18L338.03 18.18L338.03 18.18Q337.05 16.94 337.05 15.33L337.05 15.33L337.05 15.33Q337.05 14.11 337.70 12.93L337.70 12.93L337.70 12.93Q338.35 11.76 339.71 11.01L339.71 11.01L339.71 11.01Q341.08 10.26 343.11 10.26L343.11 10.26L343.11 10.26Q345.00 10.26 346.33 10.64L346.33 10.64L346.33 10.64Q347.66 11.03 348.88 11.90L348.88 11.90L347.03 14.77L347.03 14.77Q346.33 14.21 345.47 13.84L345.47 13.84L345.47 13.84Q344.61 13.48 343.91 13.48L343.91 13.48L343.91 13.48Q343.07 13.48 342.55 13.83L342.55 13.83L342.55 13.83Q342.02 14.18 342.02 14.67L342.02 14.67L342.02 14.67Q341.99 15.40 342.63 15.77L342.63 15.77L342.63 15.77Q343.28 16.14 344.65 16.52L344.65 16.52L344.65 16.52Q344.86 16.59 345.08 16.66L345.08 16.66L345.08 16.66Q345.31 16.73 345.56 16.80L345.56 16.80L345.56 16.80Q349.16 17.99 349.16 21.14L349.16 21.14L349.16 21.14Q349.16 22.61 348.43 23.84L348.43 23.84L348.43 23.84Q347.69 25.06 346.20 25.81L346.20 25.81L346.20 25.81Q344.72 26.57 342.58 26.57L342.58 26.57ZM354.69 4.24L359.59 4.24L359.59 10.89L363.30 10.89L363.30 14.70L359.59 14.70L359.59 26.25L354.69 26.25L354.69 14.70L352.31 14.70L352.31 10.89L354.69 10.89L354.69 4.24Z" transform="rotate(0 182.209996342659 12.815000176429749)"></path><defs id="SvgjsDefs1012"></defs></svg></g></svg>